<svg width="237" height="42" viewBox="0 0 237 42" fill="none" xmlns="http://www.w3.org/2000/svg">
<path fill-rule="evenodd" clip-rule="evenodd" d="M5.37549 15.7769C5.37549 7.06256 12.2315 0 20.6888 0C29.1463 0 36.0021 7.06405 36.0021 15.7783C36.0021 19.0572 35.0292 22.1044 33.3668 24.6287L31.7258 23.4813C33.1728 21.2843 34.0191 18.6347 34.0191 15.7783C34.0191 8.19253 28.051 2.04329 20.6888 2.04329C13.3265 2.04329 7.35857 8.19129 7.35857 15.7769C7.35857 18.6338 8.20373 21.2844 9.65143 23.4794L8.01123 24.6279C6.34682 22.1042 5.37549 19.0554 5.37549 15.7769Z" fill="#018B8A"/>
<path fill-rule="evenodd" clip-rule="evenodd" d="M4.09571 34.7415C2.92894 34.7415 1.98308 35.7161 1.98308 36.9183C1.98308 38.1205 2.92894 39.0951 4.09571 39.0951C5.26249 39.0951 6.20835 38.1205 6.20835 36.9183C6.20835 35.7161 5.26249 34.7415 4.09571 34.7415ZM0 36.9183C0 34.5876 1.83371 32.6982 4.09571 32.6982C6.35771 32.6982 8.19143 34.5876 8.19143 36.9183C8.19143 39.249 6.35772 41.1384 4.09571 41.1384C1.83371 41.1384 0 39.249 0 36.9183Z" fill="#018B8A"/>
<path fill-rule="evenodd" clip-rule="evenodd" d="M37.3257 34.7415C36.1589 34.7415 35.2131 35.7161 35.2131 36.9183C35.2131 38.1205 36.1589 39.0951 37.3257 39.0951C38.4925 39.0951 39.4383 38.1205 39.4383 36.9183C39.4383 35.7161 38.4925 34.7415 37.3257 34.7415ZM33.23 36.9183C33.23 34.5876 35.0637 32.6982 37.3257 32.6982C39.5877 32.6982 41.4214 34.5876 41.4214 36.9183C41.4214 39.249 39.5877 41.1384 37.3257 41.1384C35.0637 41.1384 33.23 39.249 33.23 36.9183Z" fill="#018B8A"/>
<path d="M15.1019 20.3894C16.1212 20.3894 16.9475 19.538 16.9475 18.4878C16.9475 17.4376 16.1212 16.5862 15.1019 16.5862C14.0826 16.5862 13.2563 17.4376 13.2563 18.4878C13.2563 19.538 14.0826 20.3894 15.1019 20.3894Z" fill="#018B8A"/>
<path d="M26.2758 20.3892C27.295 20.3892 28.1213 19.5378 28.1213 18.4876C28.1213 17.4373 27.295 16.5859 26.2758 16.5859C25.2565 16.5859 24.4302 17.4373 24.4302 18.4876C24.4302 19.5378 25.2565 20.3892 26.2758 20.3892Z" fill="#018B8A"/>
<path fill-rule="evenodd" clip-rule="evenodd" d="M32.2075 27.464C28.8963 26.6269 24.8083 26.481 21.244 28.9537L20.6902 29.3379L20.1364 28.9537C16.5721 26.481 12.4841 26.6269 9.17294 27.464C7.52685 27.8801 6.10854 28.4592 5.10139 28.9351C4.64727 29.1497 4.27905 29.3422 4.01384 29.4875V31.2243H2.03076V28.3133L2.50766 28.0149L3.0223 28.8881C2.50766 28.0149 2.50801 28.0147 2.50839 28.0144L2.50934 28.0138L2.51193 28.0122L2.51981 28.0073C2.52626 28.0034 2.53511 27.9979 2.54631 27.9911C2.56869 27.9775 2.60047 27.9583 2.64128 27.9341C2.72288 27.8858 2.84067 27.8176 2.99168 27.7337C3.29357 27.566 3.72913 27.3356 4.27473 27.0778C5.36383 26.5632 6.9027 25.934 8.70039 25.4796C12.1212 24.6148 16.612 24.3529 20.6902 26.8944C24.7684 24.3529 29.2592 24.6148 32.68 25.4796C34.4777 25.934 36.0166 26.5632 37.1057 27.0778C37.6513 27.3356 38.0868 27.566 38.3887 27.7337C38.5397 27.8176 38.6575 27.8858 38.7391 27.9341C38.7799 27.9583 38.8117 27.9775 38.8341 27.9911C38.8453 27.9979 38.8541 28.0034 38.8606 28.0073L38.8685 28.0122L38.8711 28.0138L38.872 28.0144C38.8724 28.0147 38.8727 28.0149 38.3581 28.8881L38.8727 28.0149L39.3496 28.3133V31.2243H37.3666V29.4875C37.1013 29.3422 36.7331 29.1497 36.279 28.9351C35.2719 28.4592 33.8535 27.8801 32.2075 27.464Z" fill="#018B8A"/>
<path fill-rule="evenodd" clip-rule="evenodd" d="M21.6818 40.8279V41.2127H19.6987V40.8279H21.6818Z" fill="#018B8A"/>
<path fill-rule="evenodd" clip-rule="evenodd" d="M21.6813 27.1228V41.2147H19.6982V27.1228H21.6813Z" fill="#018B8A"/>
<path fill-rule="evenodd" clip-rule="evenodd" d="M5.37549 15.7769C5.37549 7.06256 12.2315 0 20.6888 0C29.1463 0 36.0021 7.06405 36.0021 15.7783C36.0021 19.0572 35.0292 22.1044 33.3668 24.6287L31.7258 23.4813C33.1728 21.2843 34.0191 18.6347 34.0191 15.7783C34.0191 8.19253 28.051 2.04329 20.6888 2.04329C13.3265 2.04329 7.35857 8.19129 7.35857 15.7769C7.35857 18.6338 8.20373 21.2844 9.65143 23.4794L8.01123 24.6279C6.34682 22.1042 5.37549 19.0554 5.37549 15.7769Z" fill="#018B8A"/>
<path fill-rule="evenodd" clip-rule="evenodd" d="M4.09571 34.7415C2.92894 34.7415 1.98308 35.7161 1.98308 36.9183C1.98308 38.1205 2.92894 39.0951 4.09571 39.0951C5.26249 39.0951 6.20835 38.1205 6.20835 36.9183C6.20835 35.7161 5.26249 34.7415 4.09571 34.7415ZM0 36.9183C0 34.5876 1.83371 32.6982 4.09571 32.6982C6.35771 32.6982 8.19143 34.5876 8.19143 36.9183C8.19143 39.249 6.35772 41.1384 4.09571 41.1384C1.83371 41.1384 0 39.249 0 36.9183Z" fill="#018B8A"/>
<path fill-rule="evenodd" clip-rule="evenodd" d="M37.3257 34.7415C36.1589 34.7415 35.2131 35.7161 35.2131 36.9183C35.2131 38.1205 36.1589 39.0951 37.3257 39.0951C38.4925 39.0951 39.4383 38.1205 39.4383 36.9183C39.4383 35.7161 38.4925 34.7415 37.3257 34.7415ZM33.23 36.9183C33.23 34.5876 35.0637 32.6982 37.3257 32.6982C39.5877 32.6982 41.4214 34.5876 41.4214 36.9183C41.4214 39.249 39.5877 41.1384 37.3257 41.1384C35.0637 41.1384 33.23 39.249 33.23 36.9183Z" fill="#018B8A"/>
<path d="M15.1019 20.3894C16.1212 20.3894 16.9475 19.538 16.9475 18.4878C16.9475 17.4376 16.1212 16.5862 15.1019 16.5862C14.0826 16.5862 13.2563 17.4376 13.2563 18.4878C13.2563 19.538 14.0826 20.3894 15.1019 20.3894Z" fill="#018B8A"/>
<path d="M26.2758 20.3892C27.295 20.3892 28.1213 19.5378 28.1213 18.4876C28.1213 17.4373 27.295 16.5859 26.2758 16.5859C25.2565 16.5859 24.4302 17.4373 24.4302 18.4876C24.4302 19.5378 25.2565 20.3892 26.2758 20.3892Z" fill="#018B8A"/>
<path fill-rule="evenodd" clip-rule="evenodd" d="M32.2075 27.464C28.8963 26.6269 24.8083 26.481 21.244 28.9537L20.6902 29.3379L20.1364 28.9537C16.5721 26.481 12.4841 26.6269 9.17294 27.464C7.52685 27.8801 6.10854 28.4592 5.10139 28.9351C4.64727 29.1497 4.27905 29.3422 4.01384 29.4875V31.2243H2.03076V28.3133L2.50766 28.0149L3.0223 28.8881C2.50766 28.0149 2.50801 28.0147 2.50839 28.0144L2.50934 28.0138L2.51193 28.0122L2.51981 28.0073C2.52626 28.0034 2.53511 27.9979 2.54631 27.9911C2.56869 27.9775 2.60047 27.9583 2.64128 27.9341C2.72288 27.8858 2.84067 27.8176 2.99168 27.7337C3.29357 27.566 3.72913 27.3356 4.27473 27.0778C5.36383 26.5632 6.9027 25.934 8.70039 25.4796C12.1212 24.6148 16.612 24.3529 20.6902 26.8944C24.7684 24.3529 29.2592 24.6148 32.68 25.4796C34.4777 25.934 36.0166 26.5632 37.1057 27.0778C37.6513 27.3356 38.0868 27.566 38.3887 27.7337C38.5397 27.8176 38.6575 27.8858 38.7391 27.9341C38.7799 27.9583 38.8117 27.9775 38.8341 27.9911C38.8453 27.9979 38.8541 28.0034 38.8606 28.0073L38.8685 28.0122L38.8711 28.0138L38.872 28.0144C38.8724 28.0147 38.8727 28.0149 38.3581 28.8881L38.8727 28.0149L39.3496 28.3133V31.2243H37.3666V29.4875C37.1013 29.3422 36.7331 29.1497 36.279 28.9351C35.2719 28.4592 33.8535 27.8801 32.2075 27.464Z" fill="#018B8A"/>
<path fill-rule="evenodd" clip-rule="evenodd" d="M21.6818 40.8279V41.2127H19.6987V40.8279H21.6818Z" fill="#018B8A"/>
<path fill-rule="evenodd" clip-rule="evenodd" d="M21.6813 27.1228V41.2147H19.6982V27.1228H21.6813Z" fill="#018B8A"/>
<path fill-rule="evenodd" clip-rule="evenodd" d="M49.0625 34.2417H64.0446V36.9659H49.0625V34.2417Z" fill="#018B8A"/>
<path fill-rule="evenodd" clip-rule="evenodd" d="M48.1816 7.00024H64.0451V9.72443H48.1816V7.00024Z" fill="#018B8A"/>
<path fill-rule="evenodd" clip-rule="evenodd" d="M49.0625 20.6211H58.7568V23.3453H49.0625V20.6211Z" fill="#018B8A"/>
<path fill-rule="evenodd" clip-rule="evenodd" d="M50.8255 7.00024V36.9663H48.1816V7.00024H50.8255Z" fill="#018B8A"/>
<path fill-rule="evenodd" clip-rule="evenodd" d="M183.021 15.1729V36.9663H180.377V15.1729H183.021Z" fill="#018B8A"/>
<path fill-rule="evenodd" clip-rule="evenodd" d="M154.819 17.7328C150.35 17.7328 146.728 21.4653 146.728 26.0696C146.728 30.6739 150.35 34.4064 154.819 34.4064C159.287 34.4064 162.91 30.6739 162.91 26.0696C162.91 21.4653 159.287 17.7328 154.819 17.7328ZM144.243 26.0696C144.243 20.0515 148.978 15.1729 154.819 15.1729C160.66 15.1729 165.394 20.0515 165.394 26.0696C165.394 32.0877 160.66 36.9663 154.819 36.9663C148.978 36.9663 144.243 32.0877 144.243 26.0696Z" fill="#018B8A"/>
<path fill-rule="evenodd" clip-rule="evenodd" d="M92.0071 26.4951H109.872L109.756 25.0881C109.296 19.5278 104.969 15.1729 99.7 15.1729C94.1233 15.1729 89.6025 20.0515 89.6025 26.0696C89.6025 32.0877 94.1233 36.9663 99.7 36.9663C103.507 36.9663 106.821 34.6907 108.54 31.3381L106.445 30.087C105.13 32.6505 102.601 34.3821 99.7 34.3821C95.5781 34.3821 92.2124 30.8883 92.0071 26.4951ZM99.7 17.7571C96.1377 17.7571 93.1402 20.3666 92.2595 23.9109H107.14C106.26 20.3664 103.262 17.7571 99.7 17.7571Z" fill="#018B8A"/>
<path fill-rule="evenodd" clip-rule="evenodd" d="M188.909 27.7973C188.909 31.4318 191.6 34.3787 194.918 34.3787C198.237 34.3787 200.928 31.4318 200.928 27.7973V15.1746H203.291V27.7973C203.291 32.8609 199.542 36.9663 194.918 36.9663C190.33 36.9663 186.604 32.9242 186.547 27.9146H186.546V15.1729H188.909V27.7973Z" fill="#018B8A"/>
<path fill-rule="evenodd" clip-rule="evenodd" d="M121.33 18.5607C117.836 18.5607 115.004 21.3848 115.004 24.8678V36.9662H112.517V24.7554H112.517C112.578 19.9546 116.5 16.0808 121.33 16.0808C126.159 16.0808 130.082 19.9546 130.142 24.7554H130.143V36.9662H127.655V24.8678C127.655 21.3848 124.823 18.5607 121.33 18.5607Z" fill="#018B8A"/>
<path fill-rule="evenodd" clip-rule="evenodd" d="M205.935 24.3245C205.935 19.3336 209.604 15.1729 214.26 15.1729C217.29 15.1729 219.903 16.9356 221.357 19.5427C222.812 16.9356 225.425 15.1729 228.455 15.1729C233.111 15.1729 236.78 19.3336 236.78 24.3245V36.9663H234.325V24.3245C234.325 20.6338 231.638 17.7556 228.455 17.7556C225.272 17.7556 222.585 20.6338 222.585 24.3245H220.13C220.13 20.6338 217.443 17.7556 214.26 17.7556C211.077 17.7556 208.389 20.6338 208.389 24.3245V36.9663H205.935V24.3245Z" fill="#018B8A"/>
<path fill-rule="evenodd" clip-rule="evenodd" d="M168.039 24.7465C168.097 20.0195 171.855 16.0808 176.637 16.0808C177.006 16.0808 177.371 16.1042 177.732 16.1514L177.391 18.6065C177.146 18.5744 176.895 18.5581 176.637 18.5581C173.369 18.5581 170.592 21.3084 170.592 24.8588V36.9662H168.038V24.7465H168.039Z" fill="#018B8A"/>
<path d="M181.699 11.5406C182.916 11.5406 183.902 10.5242 183.902 9.2704C183.902 8.01663 182.916 7.00024 181.699 7.00024C180.482 7.00024 179.496 8.01663 179.496 9.2704C179.496 10.5242 180.482 11.5406 181.699 11.5406Z" fill="#018B8A"/>
<path fill-rule="evenodd" clip-rule="evenodd" d="M135.338 7.41943V27.9577C135.338 31.5707 137.999 34.3696 141.129 34.3696C141.376 34.3696 141.616 34.353 141.851 34.3204L142.178 36.8188C141.832 36.8669 141.483 36.8906 141.129 36.8906C136.511 36.8906 132.892 32.8187 132.892 27.9577V7.41943H135.338Z" fill="#018B8A"/>
<path fill-rule="evenodd" clip-rule="evenodd" d="M139.894 19.8133H134.947V17.2922H139.894V19.8133Z" fill="#018B8A"/>
<path d="M86.9589 15.1729C84.7031 20.0356 82.4456 24.9001 80.1898 29.7629L80.0658 30.0292L77.885 34.6969L76.8248 36.9663L75.7645 34.6969L73.5837 30.0292L73.4597 29.7629C71.2023 24.9001 68.9464 20.0356 66.689 15.1729H69.3738C71.858 20.5021 74.3406 25.833 76.8248 31.1639C79.3073 25.833 81.7915 20.5021 84.2741 15.1729H86.9589Z" fill="#018B8A"/>
<path d="M79.9081 30.6099L77.282 35.1502L77.2642 35.1436L79.9081 30.6099Z" fill="#018B8A"/>
<path fill-rule="evenodd" clip-rule="evenodd" d="M86.0771 16.961L86.9049 15.1729L86.9585 15.2008L86.1307 16.989L86.0771 16.961Z" fill="#018B8A"/>
<path fill-rule="evenodd" clip-rule="evenodd" d="M222.679 20.6211V36.9662H220.035V20.6211H222.679Z" fill="#018B8A"/>
</svg>
